<svg width="95" height="29" viewBox="0 0 95 29" fill="none" xmlns="http://www.w3.org/2000/svg">
<g clip-path="url(#clip0_60_416)">
<path d="M15.75 15.25C15.75 16.2446 15.3549 17.1984 14.6517 17.9017C13.9484 18.6049 12.9946 19 12 19C11.0054 19 10.0516 18.6049 9.34835 17.9017C8.64509 17.1984 8.25 16.2446 8.25 15.25C8.25 14.2554 8.64509 13.3016 9.34835 12.5983C10.0516 11.8951 11.0054 11.5 12 11.5C12.9946 11.5 13.9484 11.8951 14.6517 12.5983C15.3549 13.3016 15.75 14.2554 15.75 15.25V15.25Z" fill="#333333"/>
<path d="M3 8.5C2.20435 8.5 1.44129 8.81607 0.87868 9.37868C0.316071 9.94129 0 10.7044 0 11.5L0 20.5C0 21.2956 0.316071 22.0587 0.87868 22.6213C1.44129 23.1839 2.20435 23.5 3 23.5H21C21.7956 23.5 22.5587 23.1839 23.1213 22.6213C23.6839 22.0587 24 21.2956 24 20.5V11.5C24 10.7044 23.6839 9.94129 23.1213 9.37868C22.5587 8.81607 21.7956 8.5 21 8.5H19.242C18.4464 8.49983 17.6835 8.18365 17.121 7.621L15.879 6.379C15.3165 5.81635 14.5536 5.50017 13.758 5.5H10.242C9.44642 5.50017 8.68348 5.81635 8.121 6.379L6.879 7.621C6.31652 8.18365 5.55358 8.49983 4.758 8.5H3ZM3.75 11.5C3.55109 11.5 3.36032 11.421 3.21967 11.2803C3.07902 11.1397 3 10.9489 3 10.75C3 10.5511 3.07902 10.3603 3.21967 10.2197C3.36032 10.079 3.55109 10 3.75 10C3.94891 10 4.13968 10.079 4.28033 10.2197C4.42098 10.3603 4.5 10.5511 4.5 10.75C4.5 10.9489 4.42098 11.1397 4.28033 11.2803C4.13968 11.421 3.94891 11.5 3.75 11.5ZM17.25 15.25C17.25 16.6424 16.6969 17.9777 15.7123 18.9623C14.7277 19.9469 13.3924 20.5 12 20.5C10.6076 20.5 9.27226 19.9469 8.28769 18.9623C7.30312 17.9777 6.75 16.6424 6.75 15.25C6.75 13.8576 7.30312 12.5223 8.28769 11.5377C9.27226 10.5531 10.6076 10 12 10C13.3924 10 14.7277 10.5531 15.7123 11.5377C16.6969 12.5223 17.25 13.8576 17.25 15.25V15.25Z" fill="#333333"/>
</g>
<path d="M38.552 22.74C37.256 22.74 36.168 22.556 35.288 22.188C34.424 21.82 33.784 21.38 33.368 20.868C32.952 20.356 32.744 19.9 32.744 19.5C32.744 19.34 32.8 19.212 32.912 19.116C33.04 19.004 33.176 18.948 33.32 18.948H36.056C36.152 18.948 36.24 18.988 36.32 19.068C36.512 19.196 36.656 19.3 36.752 19.38C37.104 19.636 37.408 19.828 37.664 19.956C37.936 20.068 38.264 20.124 38.648 20.124C39.112 20.124 39.488 20.036 39.776 19.86C40.08 19.668 40.232 19.404 40.232 19.068C40.232 18.796 40.152 18.58 39.992 18.42C39.848 18.26 39.56 18.108 39.128 17.964C38.696 17.804 38.04 17.636 37.16 17.46C35.832 17.188 34.808 16.748 34.088 16.14C33.384 15.516 33.032 14.684 33.032 13.644C33.032 12.988 33.24 12.364 33.656 11.772C34.072 11.18 34.688 10.7 35.504 10.332C36.336 9.964 37.32 9.78 38.456 9.78C39.592 9.78 40.584 9.956 41.432 10.308C42.28 10.66 42.92 11.092 43.352 11.604C43.8 12.1 44.024 12.556 44.024 12.972C44.024 13.116 43.968 13.244 43.856 13.356C43.76 13.468 43.64 13.524 43.496 13.524H41C40.872 13.524 40.752 13.484 40.64 13.404C40.432 13.292 40.248 13.172 40.088 13.044C39.816 12.836 39.56 12.676 39.32 12.564C39.08 12.452 38.784 12.396 38.432 12.396C38.016 12.396 37.68 12.492 37.424 12.684C37.184 12.876 37.064 13.124 37.064 13.428C37.064 13.668 37.128 13.868 37.256 14.028C37.4 14.188 37.688 14.348 38.12 14.508C38.568 14.652 39.224 14.804 40.088 14.964C41.64 15.236 42.768 15.716 43.472 16.404C44.192 17.092 44.552 17.9 44.552 18.828C44.552 20.012 44.024 20.964 42.968 21.684C41.912 22.388 40.44 22.74 38.552 22.74ZM47.2816 22.5C47.1056 22.5 46.9616 22.444 46.8496 22.332C46.7376 22.22 46.6816 22.076 46.6816 21.9V10.62C46.6816 10.444 46.7376 10.3 46.8496 10.188C46.9616 10.076 47.1056 10.02 47.2816 10.02H50.0416C50.2176 10.02 50.3616 10.076 50.4736 10.188C50.6016 10.3 50.6656 10.444 50.6656 10.62V11.532C51.0976 11.004 51.6496 10.58 52.3216 10.26C53.0096 9.94 53.7856 9.78 54.6496 9.78C56.0576 9.78 57.2016 10.26 58.0816 11.22C58.9616 12.164 59.4016 13.492 59.4016 15.204V21.9C59.4016 22.06 59.3456 22.204 59.2336 22.332C59.1216 22.444 58.9776 22.5 58.8016 22.5H55.7776C55.6176 22.5 55.4736 22.444 55.3456 22.332C55.2336 22.204 55.1776 22.06 55.1776 21.9V15.348C55.1776 14.596 54.9936 14.02 54.6256 13.62C54.2576 13.204 53.7296 12.996 53.0416 12.996C52.3696 12.996 51.8416 13.204 51.4576 13.62C51.0736 14.02 50.8816 14.596 50.8816 15.348V21.9C50.8816 22.06 50.8256 22.204 50.7136 22.332C50.6016 22.444 50.4576 22.5 50.2816 22.5H47.2816ZM65.8475 22.74C64.9995 22.74 64.2235 22.58 63.5195 22.26C62.8315 21.924 62.2875 21.476 61.8875 20.916C61.5035 20.34 61.3115 19.708 61.3115 19.02C61.3115 17.916 61.7595 17.028 62.6555 16.356C63.5675 15.684 64.8155 15.22 66.3995 14.964L69.3995 14.508V14.172C69.3995 13.564 69.2715 13.116 69.0155 12.828C68.7595 12.54 68.3275 12.396 67.7195 12.396C67.3515 12.396 67.0475 12.46 66.8075 12.588C66.5675 12.716 66.3195 12.892 66.0635 13.116C65.8395 13.308 65.6715 13.436 65.5595 13.5C65.5115 13.628 65.4235 13.692 65.2955 13.692H62.6795C62.5195 13.692 62.3835 13.644 62.2715 13.548C62.1755 13.436 62.1355 13.308 62.1515 13.164C62.1675 12.732 62.3755 12.252 62.7755 11.724C63.1915 11.196 63.8155 10.74 64.6475 10.356C65.4955 9.972 66.5355 9.78 67.7675 9.78C69.7355 9.78 71.1915 10.22 72.1355 11.1C73.0795 11.964 73.5515 13.132 73.5515 14.604V21.9C73.5515 22.06 73.4955 22.204 73.3835 22.332C73.2715 22.444 73.1275 22.5 72.9515 22.5H70.1675C70.0075 22.5 69.8635 22.444 69.7355 22.332C69.6235 22.204 69.5675 22.06 69.5675 21.9V21.06C69.2155 21.556 68.7195 21.964 68.0795 22.284C67.4555 22.588 66.7115 22.74 65.8475 22.74ZM66.9755 20.004C67.7115 20.004 68.3035 19.764 68.7515 19.284C69.2155 18.804 69.4475 18.1 69.4475 17.172V16.836L67.4075 17.196C65.9675 17.452 65.2475 17.956 65.2475 18.708C65.2475 19.108 65.4155 19.428 65.7515 19.668C66.0875 19.892 66.4955 20.004 66.9755 20.004ZM76.8598 27.06C76.6998 27.06 76.5558 27.004 76.4277 26.892C76.3158 26.78 76.2598 26.636 76.2598 26.46V10.62C76.2598 10.444 76.3158 10.3 76.4277 10.188C76.5558 10.076 76.6998 10.02 76.8598 10.02H79.5718C79.7478 10.02 79.8918 10.076 80.0038 10.188C80.1158 10.3 80.1718 10.444 80.1718 10.62V11.484C81.0358 10.348 82.2758 9.78 83.8918 9.78C85.4598 9.78 86.6838 10.268 87.5638 11.244C88.4438 12.22 88.9238 13.596 89.0038 15.372C89.0198 15.58 89.0278 15.876 89.0278 16.26C89.0278 16.644 89.0198 16.94 89.0038 17.148C88.9398 18.876 88.4598 20.244 87.5638 21.252C86.6678 22.244 85.4438 22.74 83.8918 22.74C82.3238 22.74 81.1558 22.204 80.3878 21.132V26.46C80.3878 26.636 80.3318 26.78 80.2198 26.892C80.1078 27.004 79.9638 27.06 79.7878 27.06H76.8598ZM82.5958 19.524C83.3478 19.524 83.8838 19.3 84.2038 18.852C84.5398 18.404 84.7318 17.788 84.7798 17.004C84.8118 16.684 84.8278 16.436 84.8278 16.26C84.8278 16.084 84.8118 15.836 84.7798 15.516C84.7318 14.732 84.5398 14.116 84.2038 13.668C83.8838 13.22 83.3478 12.996 82.5958 12.996C81.8598 12.996 81.3158 13.228 80.9638 13.692C80.6278 14.14 80.4358 14.724 80.3878 15.444L80.3638 16.332L80.3878 17.244C80.4198 17.9 80.6198 18.444 80.9878 18.876C81.3558 19.308 81.8918 19.524 82.5958 19.524Z" fill="#333333"/>
<defs>
<clipPath id="clip0_60_416">
<rect width="24" height="24" fill="white" transform="translate(0 2.5)"/>
</clipPath>
</defs>
</svg>
